<?xml version="1.0" standalone="no"?><!DOCTYPE svg PUBLIC "-//W3C//DTD SVG 1.1//EN" "http://www.w3.org/Graphics/SVG/1.1/DTD/svg11.dtd"><svg class="icon" width="200px" height="200.00px" viewBox="0 0 1024 1024" version="1.1" xmlns="http://www.w3.org/2000/svg"><path fill="#606266" d="M515.2 979.2c-3.2 0-6.4 0-9.6-3.2L131.2 761.6c-6.4-3.2-9.6-9.6-9.6-19.2V313.6c0-6.4 3.2-12.8 9.6-19.2l374.4-214.4c6.4-3.2 12.8-3.2 19.2 0L896 294.4c6.4 3.2 9.6 9.6 9.6 19.2v432c0 6.4-3.2 12.8-9.6 19.2l-374.4 214.4h-6.4zM160 732.8l352 204.8 352-204.8V326.4L512 121.6 160 326.4v406.4zM742.4 348.8H278.4c-16 0-32 16-32 32v89.6c0 16 16 32 32 32h464c19.2 0 32-16 32-32v-89.6c0-16-16-32-32-32zM329.6 448c-12.8 0-19.2-9.6-19.2-19.2 0-12.8 9.6-19.2 19.2-19.2 12.8 0 19.2 9.6 19.2 19.2 3.2 9.6-6.4 19.2-19.2 19.2z m67.2 0c-12.8 0-19.2-9.6-19.2-19.2 0-12.8 9.6-19.2 19.2-19.2 12.8 0 19.2 9.6 19.2 19.2s-9.6 19.2-19.2 19.2z m310.4-3.2h-262.4v-32h262.4v32zM742.4 569.6H278.4c-16 0-32 16-32 32v89.6c0 16 16 32 32 32h464c19.2 0 32-16 32-32v-89.6c0-19.2-16-32-32-32z m-412.8 96c-12.8 0-19.2-9.6-19.2-19.2 0-12.8 9.6-19.2 19.2-19.2 12.8 0 19.2 9.6 19.2 19.2 3.2 9.6-6.4 19.2-19.2 19.2z m67.2 0c-12.8 0-19.2-9.6-19.2-19.2 0-12.8 9.6-19.2 19.2-19.2 12.8 0 19.2 9.6 19.2 19.2s-9.6 19.2-19.2 19.2z m310.4-3.2h-262.4v-32h262.4v32z" /></svg>