<?xml version="1.0" standalone="no"?><!DOCTYPE svg PUBLIC "-//W3C//DTD SVG 1.1//EN" "http://www.w3.org/Graphics/SVG/1.1/DTD/svg11.dtd"><svg class="icon" width="200px" height="200.00px" viewBox="0 0 1024 1024" version="1.1" xmlns="http://www.w3.org/2000/svg"><path fill="#79879C" d="M5.953488 537.004651v-45.246511c0-1.190698 0.595349-2.381395 0.595349-3.572093 1.786047-16.074419 2.976744-32.148837 4.762791-48.223256C17.860465 391.739535 32.148837 345.897674 52.390698 301.84186 80.372093 241.116279 119.069767 187.534884 168.483721 141.693023c16.074419-14.883721 33.339535-28.576744 51.2-41.674418 26.195349-19.051163 54.176744-35.125581 83.944186-48.223256C338.15814 35.72093 373.87907 23.813953 411.386047 16.669767c20.24186-3.572093 41.07907-5.953488 61.32093-8.930232l19.646511-1.786047h45.841861c1.190698 0 2.381395 0.595349 3.572093 0.595349 25.004651 1.190698 50.009302 4.762791 75.013953 9.525582 38.697674 7.739535 76.204651 19.646512 111.925582 36.316279 60.725581 27.981395 113.711628 66.67907 158.958139 115.497674 16.074419 17.265116 31.553488 35.72093 45.246512 55.367442 29.172093 42.269767 51.795349 87.516279 67.274419 136.334884 15.47907 49.413953 23.813953 99.423256 23.813953 151.218604 0 26.195349-1.786047 52.986047-5.35814 79.181396-7.144186 48.223256-20.837209 94.065116-41.079069 138.12093-27.981395 60.725581-66.67907 113.711628-115.497675 158.958139-17.265116 16.074419-35.72093 30.95814-55.367442 44.651163-50.604651 35.125581-105.972093 60.725581-165.506976 75.609303-51.2 13.097674-103.590698 17.860465-156.576745 14.88372-30.362791-1.786047-60.725581-6.548837-90.493023-13.693023-44.055814-10.716279-86.325581-27.386047-126.213953-49.413953-38.697674-21.432558-73.823256-47.032558-105.376744-77.990698-14.883721-14.288372-27.981395-29.767442-41.674419-45.246512-20.837209-24.409302-38.697674-51.795349-54.176744-80.372093-20.24186-37.506977-35.125581-76.204651-45.246512-117.283721-6.548837-27.386047-11.311628-54.772093-13.693023-82.753488-0.595349-5.35814-1.190698-11.906977-1.786047-18.455814z m573.916279 403.051163c85.134884-11.906977 189.916279-55.367442 269.097675-153.6 76.204651-94.660465 106.567442-203.013953 92.874418-323.274419-24.409302-217.302326-219.088372-397.097674-464.967441-376.855814C248.855814 105.376744 65.488372 306.009302 86.325581 552.483721c19.051163 220.27907 194.67907 365.544186 363.162791 386.976744l-1.786046-1.786046c-11.311628-8.334884-21.432558-17.860465-30.362791-28.576745-14.288372-17.265116-25.004651-36.911628-32.148837-58.344186-4.167442-13.693023-7.739535-27.386047-8.930233-41.674418-0.595349-2.976744-1.190698-5.35814-4.167442-6.548837-8.930233-4.167442-17.860465-8.930233-26.195349-14.288373-20.24186-12.502326-38.102326-27.981395-52.390697-47.627907-7.739535-10.716279-14.883721-21.432558-20.241861-33.339534-5.35814-10.716279-9.525581-21.432558-13.097674-33.339535-4.167442-15.47907-4.762791-31.553488-2.381395-47.032558 1.190698-10.716279 4.762791-20.24186 11.311627-28.576745 10.12093-12.502326 23.813953-16.074419 38.697675-15.479069 11.906977 0.595349 23.218605 3.572093 34.530232 8.334883 48.223256 21.432558 98.827907 31.553488 151.218605 33.934884 30.95814 1.190698 61.32093-0.595349 91.683721-5.358139 33.934884-5.35814 67.274419-14.288372 98.827907-27.386047 15.47907-6.548837 30.95814-11.311628 48.223256-9.525581 19.051163 2.381395 30.95814 13.097674 36.911628 29.767441 6.548837 17.860465 5.35814 36.911628 2.381395 55.367442-2.976744 18.455814-11.311628 35.125581-20.24186 51.2-11.311628 19.646512-25.6 36.911628-42.865117 51.2-15.47907 13.097674-31.553488 23.218605-50.009302 31.553489-2.976744 1.190698-4.167442 3.572093-4.762791 6.548837-2.381395 20.837209-7.739535 41.07907-16.669767 60.130232-10.12093 22.623256-24.409302 42.269767-42.865116 58.939535-4.167442 4.167442-8.930233 8.334884-14.288373 12.502326z m-168.48372-163.125581c0 15.47907 1.190698 30.95814 4.76279 45.84186 5.953488 25.6 16.669767 48.223256 34.530233 67.274419 17.265116 18.455814 38.697674 30.95814 61.916279 39.888372 1.190698 0.595349 3.572093 0.595349 4.762791 0 18.455814-7.144186 35.72093-16.669767 50.604651-29.172093 16.074419-13.693023 27.981395-30.362791 36.316279-50.009303 10.716279-25.6 14.883721-51.795349 13.693023-79.181395-0.595349-16.669767-2.381395-32.744186-5.953488-48.818605-0.595349-2.381395-1.190698-3.572093-3.572093-3.572093-11.906977-1.190698-23.813953 0-35.125582 2.381396-17.265116 2.976744-33.934884 7.739535-50.009302 14.288372-5.953488 2.381395-11.311628 1.786047-17.265116 0-14.288372-4.762791-28.576744-8.930233-43.460465-12.502326-13.097674-3.572093-27.386047-4.762791-41.07907-4.167442-2.976744 0-4.167442 1.190698-4.762791 4.167442-2.976744 17.265116-5.35814 35.125581-5.358139 53.581396z m244.093023-22.623256c0.595349 0 0.595349 0.595349 1.190697 0.595349 8.334884-6.548837 16.669767-11.906977 23.813954-19.051163 8.930233-8.334884 17.265116-17.860465 23.813953-27.981396 11.311628-16.669767 20.837209-35.125581 22.027907-55.96279 0.595349-8.334884 1.190698-16.669767-2.381395-24.409303-0.595349-1.190698-2.381395-2.976744-3.572093-2.976744-6.548837 0.595349-13.097674 0-19.051163 2.381396-55.367442 22.623256-112.52093 36.316279-172.651163 38.102325-30.362791 1.190698-60.725581-0.595349-91.088372-5.358139-36.316279-5.953488-71.44186-15.47907-105.376744-30.362791-7.144186-2.976744-14.288372-5.35814-22.027907-4.762791-2.381395 0-4.167442 1.190698-4.762791 3.572093-4.762791 13.693023-3.572093 27.981395 0.595349 41.07907 8.930233 27.981395 25.004651 51.795349 48.223256 70.846512 5.953488 5.35814 12.502326 9.525581 19.646512 14.883721 0.595349-2.976744 0.595349-4.762791 1.190697-5.953489 2.381395-15.47907 4.762791-30.362791 7.144186-45.84186 1.786047-12.502326 10.12093-18.455814 22.027907-21.432558 16.669767-4.167442 33.339535-3.572093 50.009303-1.190698 19.646512 2.976744 38.697674 7.739535 57.153488 14.288372 1.786047 0.595349 3.572093 0.595349 5.35814 0 21.432558-7.144186 42.865116-13.097674 64.893023-15.47907 14.883721-1.786047 29.172093-1.786047 44.055814 2.381396 8.930233 2.381395 17.265116 5.953488 19.646512 15.479069 2.976744 11.906977 4.762791 23.218605 7.144186 35.125582 1.786047 8.334884 1.786047 15.47907 2.976744 22.027907zM444.130233 377.451163c-2.976744 35.125581-25.6 56.55814-59.534884 59.534884-35.125581-2.976744-55.962791-24.409302-59.534884-59.534884 2.976744-34.530233 24.409302-58.939535 59.534884-58.939535s56.55814 24.409302 59.534884 58.939535zM654.883721 396.502326c-13.693023-0.595349-27.981395-1.190698-41.07907-5.953489-7.144186-2.381395-14.288372-4.762791-17.265116-12.502325-0.595349-1.190698-0.595349-2.976744 0-4.167442 2.976744-8.334884 11.311628-10.716279 18.455814-13.097675 11.906977-4.167442 24.409302-5.35814 36.911628-5.358139 14.883721-0.595349 30.362791 1.190698 44.651163 5.953488 4.167442 1.190698 8.930233 3.572093 12.502325 6.548837 2.381395 1.786047 5.35814 5.953488 5.35814 8.334884-0.595349 2.976744-2.976744 7.144186-5.953489 8.930233-11.906977 7.739535-25.6 10.12093-39.888372 11.311628-5.35814-0.595349-9.525581 0-13.693023 0z" /></svg>