<?xml version="1.0" standalone="no"?><!DOCTYPE svg PUBLIC "-//W3C//DTD SVG 1.1//EN" "http://www.w3.org/Graphics/SVG/1.1/DTD/svg11.dtd"><svg class="icon" width="200px" height="200.00px" viewBox="0 0 1024 1024" version="1.1" xmlns="http://www.w3.org/2000/svg"><path fill="#606266" d="M442.8 457.1c-18.2-60.4-74.3-104.5-140.6-104.5s-122.4 44.1-140.6 104.5H64v110h108c24.5 47 73.7 79.1 130.2 79.1s105.7-32.1 130.2-79.1h525.7v-110H442.8z m-140.6 95.1c-29.1 0-52.8-23.7-52.8-52.8 0-29.1 23.7-52.8 52.8-52.8s52.8 23.7 52.8 52.8c0 29.1-23.7 52.8-52.8 52.8zM719.4 372.8c61.5 0 114.3-38 136.1-91.8H958V171H855.5c-21.8-53.8-74.6-91.8-136.1-91.8s-114.3 38-136.1 91.8H64.1v110h519.2c21.8 53.7 74.6 91.8 136.1 91.8z m0-199.7c29.1 0 52.8 23.7 52.8 52.8s-23.7 52.8-52.8 52.8-52.8-23.7-52.8-52.8 23.7-52.8 52.8-52.8zM719.4 654c-61.5 0-114.3 38-136.1 91.8H64.2v110h519.1c21.8 53.8 74.6 91.8 136.1 91.8s114.3-38 136.1-91.8H958v-110H855.5C833.7 692 780.9 654 719.4 654z m0 199.6c-29.1 0-52.8-23.7-52.8-52.8s23.7-52.8 52.8-52.8 52.8 23.7 52.8 52.8-23.7 52.8-52.8 52.8z" /></svg>