<?xml version="1.0" standalone="no"?><!DOCTYPE svg PUBLIC "-//W3C//DTD SVG 1.1//EN" "http://www.w3.org/Graphics/SVG/1.1/DTD/svg11.dtd"><svg class="icon" width="200px" height="200.00px" viewBox="0 0 1024 1024" version="1.1" xmlns="http://www.w3.org/2000/svg"><path d="M64.212 127.99H896v192.382H64.212z" fill="#ffffff" /><path d="M64.212 233.953h63.813V895.64H64.212zM832.162 233.953h64.181v214.256h-64.181z" fill="#ffffff" /><path d="M115 831.721h397v63.919H115zM115 639.965h333.087v63.919H115zM115 448.209h396.612v63.919H115z" fill="#ffffff" /><path d="M320.062 233.952h64.012v611.714h-64.012zM576.112 242.316h64.012v205.892h-64.012z" fill="#ffffff" /><path d="M884.188 828.437c15.383-27.605 43.513-42.096 70.148-38.796 3.867-17.24 5.977-35.215 5.977-53.741 0-16.325-1.582-32.19-4.659-47.597-26.899 3.668-55.645-10.915-71.116-38.977-15.733-28.523-13.186-62.363 4.134-84.74-23.736-23.02-52.305-40.721-83.949-51.359-9.846 27.146-36.831 46.681-68.566 46.681s-58.72-19.536-68.566-46.681c-31.382 10.454-59.687 27.972-83.333 50.624 17.229 22.469 19.602 56.401 3.779 84.832-15.559 27.972-44.39 42.461-71.201 38.702C513.67 702.975 512 719.3 512 735.9c0 18.159 2.022 35.858 5.713 52.826 26.548-3.211 54.679 11.464 69.974 39.069 15.031 27.237 13.359 59.245-1.848 81.621 23.824 22.377 52.217 39.62 83.598 49.798 11.076-24.67 36.745-41.91 66.632-41.91 29.886 0 55.556 17.24 66.632 41.91 31.119-10.087 59.248-27.054 82.893-49.156-14.943-22.376-16.525-54.475-1.406-81.621z m-148.031 9.171c-53.799 0-97.487-45.583-97.487-101.708 0-56.127 43.688-101.708 97.487-101.708 53.799 0 97.487 45.488 97.487 101.708-0.001 56.126-43.689 101.708-97.487 101.708z m0 0" fill="#ffffff" /></svg>
